<mxfile host="app.diagrams.net" modified="2023-08-05T10:41:04.160Z" agent="Mozilla/5.0 (Windows NT 10.0; Win64; x64) AppleWebKit/537.36 (KHTML, like Gecko) Chrome/90.0.4430.72 Safari/537.36" etag="54-M9h5TKHNGVQ0faplN" version="21.6.6" type="github" pages="4">
  <diagram name="RT-DINA-RG" id="OGnDkvJL42xPrGmm1Utj">
    <mxGraphModel dx="1434" dy="1591" grid="1" gridSize="10" guides="1" tooltips="1" connect="1" arrows="1" fold="1" page="1" pageScale="1" pageWidth="1169" pageHeight="827" math="1" shadow="0">
      <root>
        <mxCell id="0" />
        <mxCell id="1" parent="0" />
        <mxCell id="WP_JJCIQm6tYKDnGJjak-1" value="" style="edgeStyle=orthogonalEdgeStyle;rounded=0;orthogonalLoop=1;jettySize=auto;html=1;strokeWidth=2;" edge="1" parent="1" target="WP_JJCIQm6tYKDnGJjak-4">
          <mxGeometry relative="1" as="geometry">
            <mxPoint x="900" y="60" as="sourcePoint" />
          </mxGeometry>
        </mxCell>
        <mxCell id="WP_JJCIQm6tYKDnGJjak-3" style="edgeStyle=orthogonalEdgeStyle;rounded=0;orthogonalLoop=1;jettySize=auto;html=1;strokeWidth=2;" edge="1" parent="1" source="WP_JJCIQm6tYKDnGJjak-4" target="WP_JJCIQm6tYKDnGJjak-9">
          <mxGeometry relative="1" as="geometry">
            <Array as="points">
              <mxPoint x="1085" y="170" />
            </Array>
          </mxGeometry>
        </mxCell>
        <mxCell id="WP_JJCIQm6tYKDnGJjak-4" value="$$ \Delta_{ni} \sim&amp;nbsp; Bern(\pi_{ni})$$" style="ellipse;whiteSpace=wrap;html=1;fontSize=15;" vertex="1" parent="1">
          <mxGeometry x="820" y="130" width="160" height="80" as="geometry" />
        </mxCell>
        <mxCell id="WP_JJCIQm6tYKDnGJjak-5" value="" style="rounded=0;whiteSpace=wrap;html=1;dashed=1;strokeWidth=3;fillColor=#f9f7ed;strokeColor=#36393d;" vertex="1" parent="1">
          <mxGeometry x="510" y="220" width="390" height="220" as="geometry" />
        </mxCell>
        <mxCell id="WP_JJCIQm6tYKDnGJjak-6" value="&lt;div style=&quot;border-color: var(--border-color); font-size: 22px;&quot;&gt;$$P(Y_{ni} ) = (1-s_i-g_i) \prod_1^K \alpha_{nk}^{q_{ik}} +g_i$$&lt;/div&gt;" style="rounded=0;whiteSpace=wrap;html=1;fontFamily=Times New Roman;fontSize=22;strokeWidth=2;opacity=60;" vertex="1" parent="1">
          <mxGeometry x="520" y="236" width="360" height="60" as="geometry" />
        </mxCell>
        <mxCell id="WP_JJCIQm6tYKDnGJjak-7" value="$$\text{log&lt;br style=&quot;font-size: 22px;&quot;&gt;}(T_{ni}) \sim N(\beta_i - \tau_n, 1/\omega_i^2)$$" style="rounded=0;whiteSpace=wrap;html=1;fontFamily=Times New Roman;fontSize=22;strokeWidth=2;opacity=60;" vertex="1" parent="1">
          <mxGeometry x="521.25" y="310" width="358.75" height="60" as="geometry" />
        </mxCell>
        <mxCell id="WP_JJCIQm6tYKDnGJjak-8" value="measurement models for SB" style="text;html=1;align=center;verticalAlign=middle;whiteSpace=wrap;rounded=0;fontSize=22;fontFamily=Times New Roman;" vertex="1" parent="1">
          <mxGeometry x="550" y="384" width="290" height="30" as="geometry" />
        </mxCell>
        <mxCell id="WP_JJCIQm6tYKDnGJjak-9" value="" style="rounded=0;whiteSpace=wrap;html=1;dashed=1;strokeWidth=3;fillColor=#cce5ff;strokeColor=#36393d;" vertex="1" parent="1">
          <mxGeometry x="980" y="220" width="240" height="220" as="geometry" />
        </mxCell>
        <mxCell id="WP_JJCIQm6tYKDnGJjak-10" value="$$P(Y_{ni} ) =g_i$$" style="rounded=0;whiteSpace=wrap;html=1;fontFamily=Times New Roman;fontSize=22;strokeWidth=2;opacity=60;" vertex="1" parent="1">
          <mxGeometry x="990" y="236" width="220" height="60" as="geometry" />
        </mxCell>
        <mxCell id="WP_JJCIQm6tYKDnGJjak-12" style="edgeStyle=orthogonalEdgeStyle;rounded=0;orthogonalLoop=1;jettySize=auto;html=1;strokeWidth=2;" edge="1" parent="1">
          <mxGeometry relative="1" as="geometry">
            <mxPoint x="660" y="220" as="targetPoint" />
            <mxPoint x="820" y="170" as="sourcePoint" />
          </mxGeometry>
        </mxCell>
        <mxCell id="WP_JJCIQm6tYKDnGJjak-17" value="$$\pi_n$$" style="ellipse;whiteSpace=wrap;html=1;fontSize=28;" vertex="1" parent="1">
          <mxGeometry x="805" y="-20" width="190" height="80" as="geometry" />
        </mxCell>
        <mxCell id="WP_JJCIQm6tYKDnGJjak-18" value="$$ \Delta_{ni} \sim&amp;nbsp; Bern(\pi_{n})$$" style="ellipse;whiteSpace=wrap;html=1;fontSize=18;" vertex="1" parent="1">
          <mxGeometry x="820" y="130" width="160" height="80" as="geometry" />
        </mxCell>
        <mxCell id="WP_JJCIQm6tYKDnGJjak-20" value="measurement models &lt;br style=&quot;font-size: 22px;&quot;&gt;for RGB" style="text;html=1;align=center;verticalAlign=middle;whiteSpace=wrap;rounded=0;fontSize=22;fontFamily=Times New Roman;" vertex="1" parent="1">
          <mxGeometry x="997.5" y="384" width="200" height="30" as="geometry" />
        </mxCell>
        <mxCell id="WP_JJCIQm6tYKDnGJjak-21" value="$$\text{log&lt;br style=&quot;font-size: 22px;&quot;&gt;&lt;br style=&quot;font-size: 22px;&quot;&gt;&lt;br style=&quot;font-size: 22px;&quot;&gt;}(T_{ni}) \sim N(\mu_c, \sigma_c^2)$$" style="rounded=0;whiteSpace=wrap;html=1;fontFamily=Times New Roman;fontSize=22;strokeWidth=2;opacity=60;" vertex="1" parent="1">
          <mxGeometry x="990" y="310" width="220" height="60" as="geometry" />
        </mxCell>
        <mxCell id="WP_JJCIQm6tYKDnGJjak-23" value="" style="rounded=0;whiteSpace=wrap;html=1;" vertex="1" parent="1">
          <mxGeometry x="1110" y="10" width="130" height="200" as="geometry" />
        </mxCell>
        <mxCell id="WP_JJCIQm6tYKDnGJjak-27" value="Higher-order models" style="text;html=1;strokeColor=none;fillColor=none;align=center;verticalAlign=middle;whiteSpace=wrap;rounded=0;fontFamily=Times New Roman;fontSize=22;" vertex="1" parent="1">
          <mxGeometry x="1111.25" y="20" width="127.5" height="40" as="geometry" />
        </mxCell>
        <mxCell id="WP_JJCIQm6tYKDnGJjak-34" value="$$\alpha_{nk}$$" style="ellipse;whiteSpace=wrap;html=1;fontSize=22;strokeWidth=2;" vertex="1" parent="1">
          <mxGeometry x="1148.75" y="80" width="52.5" height="50" as="geometry" />
        </mxCell>
        <mxCell id="WP_JJCIQm6tYKDnGJjak-35" value="$$\tau_n$$" style="ellipse;whiteSpace=wrap;html=1;fontSize=22;strokeWidth=2;" vertex="1" parent="1">
          <mxGeometry x="1148.75" y="140" width="52.5" height="50" as="geometry" />
        </mxCell>
        <mxCell id="WP_JJCIQm6tYKDnGJjak-36" value="(b) Diagram of RT-DINA-RG" style="text;html=1;strokeColor=none;fillColor=none;align=center;verticalAlign=middle;whiteSpace=wrap;rounded=0;fontSize=26;fontFamily=Times New Roman;" vertex="1" parent="1">
          <mxGeometry x="672.5" y="460" width="430" height="30" as="geometry" />
        </mxCell>
        <mxCell id="X-7rcVQEBZKW3dR9be2J-1" value="" style="edgeStyle=orthogonalEdgeStyle;rounded=0;orthogonalLoop=1;jettySize=auto;html=1;strokeWidth=2;" edge="1" parent="1" target="X-7rcVQEBZKW3dR9be2J-4">
          <mxGeometry relative="1" as="geometry">
            <mxPoint x="850" y="640" as="sourcePoint" />
          </mxGeometry>
        </mxCell>
        <mxCell id="X-7rcVQEBZKW3dR9be2J-3" style="edgeStyle=orthogonalEdgeStyle;rounded=0;orthogonalLoop=1;jettySize=auto;html=1;strokeWidth=2;" edge="1" parent="1" source="X-7rcVQEBZKW3dR9be2J-4" target="X-7rcVQEBZKW3dR9be2J-9">
          <mxGeometry relative="1" as="geometry">
            <Array as="points">
              <mxPoint x="1035" y="750" />
            </Array>
          </mxGeometry>
        </mxCell>
        <mxCell id="X-7rcVQEBZKW3dR9be2J-4" value="$$ \Delta_{ni} \sim&amp;nbsp; Bern(\pi_{ni})$$" style="ellipse;whiteSpace=wrap;html=1;fontSize=15;" vertex="1" parent="1">
          <mxGeometry x="770" y="710" width="160" height="80" as="geometry" />
        </mxCell>
        <mxCell id="X-7rcVQEBZKW3dR9be2J-5" value="" style="rounded=0;whiteSpace=wrap;html=1;dashed=1;strokeWidth=3;fillColor=#f9f7ed;strokeColor=#36393d;" vertex="1" parent="1">
          <mxGeometry x="460" y="800" width="370" height="230" as="geometry" />
        </mxCell>
        <mxCell id="X-7rcVQEBZKW3dR9be2J-6" value="&lt;div style=&quot;border-color: var(--border-color); font-size: 22px;&quot;&gt;$$P(Y_{ni} ) = (1-s_i-g_i) \prod_1^K \alpha_{nk}^{q_{ik}} +g_i$$&lt;/div&gt;" style="rounded=0;whiteSpace=wrap;html=1;fontFamily=Times New Roman;fontSize=22;strokeWidth=2;opacity=60;" vertex="1" parent="1">
          <mxGeometry x="470" y="816" width="340" height="60" as="geometry" />
        </mxCell>
        <mxCell id="X-7rcVQEBZKW3dR9be2J-7" value="$$\text{log&lt;br style=&quot;border-color: var(--border-color); font-size: 22px;&quot;&gt;}(T_{ni}) \sim N(\beta_i - \tau_n, 1/\omega_i^2)$$" style="rounded=0;whiteSpace=wrap;html=1;fontFamily=Times New Roman;fontSize=22;strokeWidth=2;opacity=60;" vertex="1" parent="1">
          <mxGeometry x="471.25" y="890" width="338.75" height="60" as="geometry" />
        </mxCell>
        <mxCell id="X-7rcVQEBZKW3dR9be2J-8" value="measurement models for SB" style="text;html=1;align=center;verticalAlign=middle;whiteSpace=wrap;rounded=0;fontSize=22;fontFamily=Times New Roman;" vertex="1" parent="1">
          <mxGeometry x="460" y="970" width="338.75" height="30" as="geometry" />
        </mxCell>
        <mxCell id="X-7rcVQEBZKW3dR9be2J-9" value="" style="rounded=0;whiteSpace=wrap;html=1;dashed=1;strokeWidth=3;fillColor=#cce5ff;strokeColor=#36393d;" vertex="1" parent="1">
          <mxGeometry x="930" y="800" width="270" height="230" as="geometry" />
        </mxCell>
        <mxCell id="X-7rcVQEBZKW3dR9be2J-10" value="$$P(Y_{ni} ) =d_i$$" style="rounded=0;whiteSpace=wrap;html=1;fontFamily=Times New Roman;fontSize=22;strokeWidth=2;opacity=60;" vertex="1" parent="1">
          <mxGeometry x="952.5" y="816" width="207.5" height="60" as="geometry" />
        </mxCell>
        <mxCell id="X-7rcVQEBZKW3dR9be2J-11" style="edgeStyle=orthogonalEdgeStyle;rounded=0;orthogonalLoop=1;jettySize=auto;html=1;strokeWidth=2;" edge="1" parent="1">
          <mxGeometry relative="1" as="geometry">
            <mxPoint x="610" y="800" as="targetPoint" />
            <mxPoint x="770" y="750" as="sourcePoint" />
          </mxGeometry>
        </mxCell>
        <mxCell id="X-7rcVQEBZKW3dR9be2J-12" value="" style="rounded=0;whiteSpace=wrap;html=1;" vertex="1" parent="1">
          <mxGeometry x="1060" y="560" width="216.25" height="220" as="geometry" />
        </mxCell>
        <mxCell id="X-7rcVQEBZKW3dR9be2J-13" style="edgeStyle=orthogonalEdgeStyle;rounded=0;orthogonalLoop=1;jettySize=auto;html=1;entryX=1;entryY=0.5;entryDx=0;entryDy=0;curved=1;strokeWidth=1;startArrow=classic;startFill=1;" edge="1" parent="1" source="X-7rcVQEBZKW3dR9be2J-14" target="X-7rcVQEBZKW3dR9be2J-20">
          <mxGeometry relative="1" as="geometry">
            <Array as="points">
              <mxPoint x="1239.25" y="685" />
              <mxPoint x="1239.25" y="745" />
            </Array>
          </mxGeometry>
        </mxCell>
        <mxCell id="X-7rcVQEBZKW3dR9be2J-14" value="$$\tau_n$$" style="ellipse;whiteSpace=wrap;html=1;fontSize=22;strokeWidth=2;" vertex="1" parent="1">
          <mxGeometry x="1166.25" y="660" width="52.5" height="50" as="geometry" />
        </mxCell>
        <mxCell id="X-7rcVQEBZKW3dR9be2J-15" style="edgeStyle=orthogonalEdgeStyle;rounded=0;orthogonalLoop=1;jettySize=auto;html=1;entryX=1;entryY=0.5;entryDx=0;entryDy=0;curved=1;startArrow=classicThin;startFill=1;strokeWidth=1;" edge="1" parent="1" source="X-7rcVQEBZKW3dR9be2J-18" target="X-7rcVQEBZKW3dR9be2J-14">
          <mxGeometry relative="1" as="geometry">
            <Array as="points">
              <mxPoint x="1239.25" y="625" />
              <mxPoint x="1239.25" y="685" />
            </Array>
          </mxGeometry>
        </mxCell>
        <mxCell id="X-7rcVQEBZKW3dR9be2J-16" style="edgeStyle=orthogonalEdgeStyle;rounded=0;orthogonalLoop=1;jettySize=auto;html=1;entryX=1;entryY=0.5;entryDx=0;entryDy=0;curved=1;startArrow=classic;startFill=1;strokeWidth=1;" edge="1" parent="1" source="X-7rcVQEBZKW3dR9be2J-18" target="X-7rcVQEBZKW3dR9be2J-20">
          <mxGeometry relative="1" as="geometry">
            <Array as="points">
              <mxPoint x="1261.25" y="625" />
              <mxPoint x="1261.25" y="745" />
            </Array>
          </mxGeometry>
        </mxCell>
        <mxCell id="X-7rcVQEBZKW3dR9be2J-17" value="" style="edgeStyle=orthogonalEdgeStyle;rounded=0;orthogonalLoop=1;jettySize=auto;html=1;entryX=1;entryY=0.5;entryDx=0;entryDy=0;" edge="1" parent="1" source="X-7rcVQEBZKW3dR9be2J-18" target="X-7rcVQEBZKW3dR9be2J-21">
          <mxGeometry relative="1" as="geometry">
            <mxPoint x="1136.25" y="625" as="targetPoint" />
          </mxGeometry>
        </mxCell>
        <mxCell id="X-7rcVQEBZKW3dR9be2J-18" value="$$\theta_n$$" style="ellipse;whiteSpace=wrap;html=1;fontSize=22;strokeWidth=2;" vertex="1" parent="1">
          <mxGeometry x="1166.25" y="600" width="52.5" height="50" as="geometry" />
        </mxCell>
        <mxCell id="X-7rcVQEBZKW3dR9be2J-19" value="Higher-order models" style="text;html=1;align=center;verticalAlign=middle;whiteSpace=wrap;rounded=0;fontFamily=Times New Roman;fontSize=20;" vertex="1" parent="1">
          <mxGeometry x="1086.25" y="560" width="181.25" height="40" as="geometry" />
        </mxCell>
        <mxCell id="X-7rcVQEBZKW3dR9be2J-20" value="$$\upsilon_n$$" style="ellipse;whiteSpace=wrap;html=1;fontSize=22;strokeWidth=2;" vertex="1" parent="1">
          <mxGeometry x="1166.25" y="720" width="52.5" height="50" as="geometry" />
        </mxCell>
        <mxCell id="X-7rcVQEBZKW3dR9be2J-21" value="$$\alpha_{nk}$$" style="ellipse;whiteSpace=wrap;html=1;fontSize=22;strokeWidth=2;" vertex="1" parent="1">
          <mxGeometry x="1086.25" y="600" width="52.5" height="50" as="geometry" />
        </mxCell>
        <mxCell id="X-7rcVQEBZKW3dR9be2J-22" value="$$logit(\pi_{ni}) = \upsilon_n - \zeta_i$$" style="ellipse;whiteSpace=wrap;html=1;fontSize=18;" vertex="1" parent="1">
          <mxGeometry x="755" y="560" width="190" height="80" as="geometry" />
        </mxCell>
        <mxCell id="X-7rcVQEBZKW3dR9be2J-23" value="$$ \Delta_{ni} \sim&amp;nbsp; Bern(\pi_{ni})$$" style="ellipse;whiteSpace=wrap;html=1;fontSize=18;" vertex="1" parent="1">
          <mxGeometry x="770" y="710" width="160" height="80" as="geometry" />
        </mxCell>
        <mxCell id="X-7rcVQEBZKW3dR9be2J-24" value="measurement models &lt;br style=&quot;font-size: 22px;&quot;&gt;for RGB" style="text;html=1;align=center;verticalAlign=middle;whiteSpace=wrap;rounded=0;fontSize=22;fontFamily=Times New Roman;" vertex="1" parent="1">
          <mxGeometry x="947.5" y="966" width="200" height="30" as="geometry" />
        </mxCell>
        <mxCell id="X-7rcVQEBZKW3dR9be2J-25" value="$$\text{log&lt;br style=&quot;border-color: var(--border-color); font-size: 22px;&quot;&gt;&lt;br style=&quot;border-color: var(--border-color); font-size: 22px;&quot;&gt;&lt;br style=&quot;border-color: var(--border-color); font-size: 22px;&quot;&gt;}(T_{ni}) \sim N(\mu_c, \sigma_c^2)$$" style="rounded=0;whiteSpace=wrap;html=1;fontFamily=Times New Roman;fontSize=22;strokeWidth=2;opacity=60;" vertex="1" parent="1">
          <mxGeometry x="953.75" y="890" width="216.25" height="60" as="geometry" />
        </mxCell>
        <mxCell id="X-7rcVQEBZKW3dR9be2J-28" value="(b) Diagram of RT-DINA-RG" style="text;html=1;strokeColor=none;fillColor=none;align=center;verticalAlign=middle;whiteSpace=wrap;rounded=0;fontSize=26;fontFamily=Times New Roman;" vertex="1" parent="1">
          <mxGeometry x="656.25" y="1070" width="430" height="30" as="geometry" />
        </mxCell>
      </root>
    </mxGraphModel>
  </diagram>
  <diagram id="lS-dwkagasM95WuxD9at" name="DINA+E">
    <mxGraphModel dx="1434" dy="764" grid="1" gridSize="10" guides="1" tooltips="1" connect="1" arrows="1" fold="1" page="1" pageScale="1" pageWidth="1169" pageHeight="827" math="1" shadow="0">
      <root>
        <mxCell id="0" />
        <mxCell id="1" parent="0" />
      </root>
    </mxGraphModel>
  </diagram>
  <diagram id="gjCR5jsI7yvJmH-ZjnN3" name="SA+E">
    <mxGraphModel dx="2261" dy="764" grid="1" gridSize="10" guides="1" tooltips="1" connect="1" arrows="1" fold="1" page="1" pageScale="1" pageWidth="827" pageHeight="1169" math="1" shadow="0">
      <root>
        <mxCell id="0" />
        <mxCell id="1" parent="0" />
        <mxCell id="Y8nBc5ku83VKrS69oZz6-1" value="" style="rounded=0;whiteSpace=wrap;html=1;" vertex="1" parent="1">
          <mxGeometry x="-165" y="318" width="155" height="260" as="geometry" />
        </mxCell>
        <mxCell id="Y8nBc5ku83VKrS69oZz6-2" value="" style="edgeStyle=orthogonalEdgeStyle;rounded=0;orthogonalLoop=1;jettySize=auto;html=1;strokeWidth=2;" edge="1" parent="1" source="Y8nBc5ku83VKrS69oZz6-3" target="Y8nBc5ku83VKrS69oZz6-6">
          <mxGeometry relative="1" as="geometry" />
        </mxCell>
        <mxCell id="Y8nBc5ku83VKrS69oZz6-3" value="$$logit(\pi_{ni}) = \upsilon_n - \zeta_i$$" style="ellipse;whiteSpace=wrap;html=1;fillColor=#eeeeee;strokeColor=#36393d;fontSize=18;strokeWidth=2;" vertex="1" parent="1">
          <mxGeometry x="-420" y="443" width="199" height="80" as="geometry" />
        </mxCell>
        <mxCell id="Y8nBc5ku83VKrS69oZz6-4" style="edgeStyle=orthogonalEdgeStyle;rounded=0;orthogonalLoop=1;jettySize=auto;html=1;strokeWidth=2;" edge="1" parent="1" source="Y8nBc5ku83VKrS69oZz6-6" target="Y8nBc5ku83VKrS69oZz6-7">
          <mxGeometry relative="1" as="geometry">
            <mxPoint x="-520" y="708" as="targetPoint" />
          </mxGeometry>
        </mxCell>
        <mxCell id="Y8nBc5ku83VKrS69oZz6-5" style="edgeStyle=orthogonalEdgeStyle;rounded=0;orthogonalLoop=1;jettySize=auto;html=1;" edge="1" parent="1" source="Y8nBc5ku83VKrS69oZz6-6" target="Y8nBc5ku83VKrS69oZz6-8">
          <mxGeometry relative="1" as="geometry" />
        </mxCell>
        <mxCell id="Y8nBc5ku83VKrS69oZz6-6" value="$$ \Delta_{ni} \sim&amp;nbsp; Bern(\pi_{ni})$$" style="ellipse;whiteSpace=wrap;html=1;fillColor=#eeeeee;strokeColor=#36393d;fontSize=18;strokeWidth=2;" vertex="1" parent="1">
          <mxGeometry x="-400" y="548" width="160" height="80" as="geometry" />
        </mxCell>
        <mxCell id="Y8nBc5ku83VKrS69oZz6-7" value="&lt;font style=&quot;font-size: 22px;&quot;&gt;measurement models for SB&lt;/font&gt;" style="rounded=0;whiteSpace=wrap;html=1;dashed=1;strokeWidth=3;fillColor=#f9f7ed;strokeColor=#36393d;fontSize=12;fontFamily=Times New Roman;" vertex="1" parent="1">
          <mxGeometry x="-590" y="638" width="180" height="90" as="geometry" />
        </mxCell>
        <mxCell id="Y8nBc5ku83VKrS69oZz6-8" value="&lt;font style=&quot;font-size: 22px;&quot; face=&quot;Times New Roman&quot;&gt;measurement models for RGB&lt;/font&gt;" style="rounded=0;whiteSpace=wrap;html=1;dashed=1;strokeWidth=3;fillColor=#cce5ff;strokeColor=#36393d;align=center;" vertex="1" parent="1">
          <mxGeometry x="-220" y="637" width="180" height="91" as="geometry" />
        </mxCell>
        <mxCell id="Y8nBc5ku83VKrS69oZz6-9" value="0" style="text;html=1;strokeColor=none;fillColor=none;align=center;verticalAlign=middle;whiteSpace=wrap;rounded=0;fontSize=20;fontFamily=Times New Roman;" vertex="1" parent="1">
          <mxGeometry x="-480" y="558" width="60" height="30" as="geometry" />
        </mxCell>
        <mxCell id="Y8nBc5ku83VKrS69oZz6-10" value="1" style="text;html=1;strokeColor=none;fillColor=none;align=center;verticalAlign=middle;whiteSpace=wrap;rounded=0;fontSize=20;fontFamily=Times New Roman;" vertex="1" parent="1">
          <mxGeometry x="-210" y="558" width="60" height="30" as="geometry" />
        </mxCell>
        <mxCell id="Y8nBc5ku83VKrS69oZz6-11" style="edgeStyle=orthogonalEdgeStyle;rounded=0;orthogonalLoop=1;jettySize=auto;html=1;entryX=1;entryY=0.5;entryDx=0;entryDy=0;curved=1;strokeWidth=1;startArrow=classic;startFill=1;" edge="1" parent="1" source="Y8nBc5ku83VKrS69oZz6-12" target="Y8nBc5ku83VKrS69oZz6-18">
          <mxGeometry relative="1" as="geometry">
            <Array as="points">
              <mxPoint x="-57" y="473" />
              <mxPoint x="-57" y="533" />
            </Array>
          </mxGeometry>
        </mxCell>
        <mxCell id="Y8nBc5ku83VKrS69oZz6-12" value="$$\tau_n$$" style="ellipse;whiteSpace=wrap;html=1;fontSize=19;strokeWidth=2;" vertex="1" parent="1">
          <mxGeometry x="-130" y="448" width="52.5" height="50" as="geometry" />
        </mxCell>
        <mxCell id="Y8nBc5ku83VKrS69oZz6-13" style="edgeStyle=orthogonalEdgeStyle;rounded=0;orthogonalLoop=1;jettySize=auto;html=1;entryX=1;entryY=0.5;entryDx=0;entryDy=0;curved=1;startArrow=classicThin;startFill=1;strokeWidth=1;" edge="1" parent="1" source="Y8nBc5ku83VKrS69oZz6-15" target="Y8nBc5ku83VKrS69oZz6-12">
          <mxGeometry relative="1" as="geometry">
            <Array as="points">
              <mxPoint x="-57" y="413" />
              <mxPoint x="-57" y="473" />
            </Array>
          </mxGeometry>
        </mxCell>
        <mxCell id="Y8nBc5ku83VKrS69oZz6-14" style="edgeStyle=orthogonalEdgeStyle;rounded=0;orthogonalLoop=1;jettySize=auto;html=1;entryX=1;entryY=0.5;entryDx=0;entryDy=0;curved=1;startArrow=classic;startFill=1;strokeWidth=1;" edge="1" parent="1" source="Y8nBc5ku83VKrS69oZz6-15" target="Y8nBc5ku83VKrS69oZz6-18">
          <mxGeometry relative="1" as="geometry">
            <Array as="points">
              <mxPoint x="-35" y="413" />
              <mxPoint x="-35" y="533" />
            </Array>
          </mxGeometry>
        </mxCell>
        <mxCell id="Y8nBc5ku83VKrS69oZz6-15" value="$$\theta_n$$" style="ellipse;whiteSpace=wrap;html=1;fontSize=19;strokeWidth=2;" vertex="1" parent="1">
          <mxGeometry x="-130" y="388" width="52.5" height="50" as="geometry" />
        </mxCell>
        <mxCell id="Y8nBc5ku83VKrS69oZz6-16" style="edgeStyle=orthogonalEdgeStyle;rounded=0;orthogonalLoop=1;jettySize=auto;html=1;strokeWidth=2;" edge="1" parent="1">
          <mxGeometry relative="1" as="geometry">
            <mxPoint x="-240" y="588" as="sourcePoint" />
            <mxPoint x="-130" y="637" as="targetPoint" />
          </mxGeometry>
        </mxCell>
        <mxCell id="Y8nBc5ku83VKrS69oZz6-17" value="Higher-order models" style="text;html=1;strokeColor=none;fillColor=none;align=center;verticalAlign=middle;whiteSpace=wrap;rounded=0;fontFamily=Times New Roman;fontSize=20;" vertex="1" parent="1">
          <mxGeometry x="-142.5" y="328" width="112.5" height="40" as="geometry" />
        </mxCell>
        <mxCell id="Y8nBc5ku83VKrS69oZz6-18" value="$$\upsilon_n$$" style="ellipse;whiteSpace=wrap;html=1;fontSize=19;strokeWidth=2;" vertex="1" parent="1">
          <mxGeometry x="-130" y="508" width="52.5" height="50" as="geometry" />
        </mxCell>
        <mxCell id="Y8nBc5ku83VKrS69oZz6-19" value="(a) Diagram of SA+E framework" style="text;html=1;strokeColor=none;fillColor=none;align=center;verticalAlign=middle;whiteSpace=wrap;rounded=0;fontSize=26;fontFamily=Times New Roman;" vertex="1" parent="1">
          <mxGeometry x="-530" y="748" width="430" height="30" as="geometry" />
        </mxCell>
      </root>
    </mxGraphModel>
  </diagram>
  <diagram id="kPp6ZTCpMfkPkqRF7e-P" name="MH">
    <mxGraphModel dx="2261" dy="764" grid="1" gridSize="10" guides="1" tooltips="1" connect="1" arrows="1" fold="1" page="1" pageScale="1" pageWidth="827" pageHeight="1169" math="1" shadow="0">
      <root>
        <mxCell id="0" />
        <mxCell id="1" parent="0" />
        <mxCell id="2vMHfR8EsplsrGMULfnD-1" value="" style="edgeStyle=orthogonalEdgeStyle;rounded=0;orthogonalLoop=1;jettySize=auto;html=1;strokeWidth=2;" edge="1" parent="1" source="2vMHfR8EsplsrGMULfnD-2" target="2vMHfR8EsplsrGMULfnD-5">
          <mxGeometry relative="1" as="geometry" />
        </mxCell>
        <mxCell id="2vMHfR8EsplsrGMULfnD-2" value="$$\pi_n$$" style="ellipse;whiteSpace=wrap;html=1;fillColor=#eeeeee;strokeColor=#36393d;fontSize=28;strokeWidth=2;" vertex="1" parent="1">
          <mxGeometry x="80" y="155" width="160" height="80" as="geometry" />
        </mxCell>
        <mxCell id="2vMHfR8EsplsrGMULfnD-3" style="edgeStyle=orthogonalEdgeStyle;rounded=0;orthogonalLoop=1;jettySize=auto;html=1;strokeWidth=2;" edge="1" parent="1" source="2vMHfR8EsplsrGMULfnD-5" target="2vMHfR8EsplsrGMULfnD-6">
          <mxGeometry relative="1" as="geometry">
            <mxPoint x="-40" y="420" as="targetPoint" />
          </mxGeometry>
        </mxCell>
        <mxCell id="2vMHfR8EsplsrGMULfnD-4" style="edgeStyle=orthogonalEdgeStyle;rounded=0;orthogonalLoop=1;jettySize=auto;html=1;" edge="1" parent="1" source="2vMHfR8EsplsrGMULfnD-5" target="2vMHfR8EsplsrGMULfnD-7">
          <mxGeometry relative="1" as="geometry" />
        </mxCell>
        <mxCell id="2vMHfR8EsplsrGMULfnD-5" value="$$ \Delta_{ni} \sim&amp;nbsp; Bern(\pi_{n})$$" style="ellipse;whiteSpace=wrap;html=1;fillColor=#eeeeee;strokeColor=#36393d;fontSize=18;strokeWidth=2;" vertex="1" parent="1">
          <mxGeometry x="80" y="260" width="160" height="80" as="geometry" />
        </mxCell>
        <mxCell id="2vMHfR8EsplsrGMULfnD-6" value="&lt;font style=&quot;font-size: 22px;&quot;&gt;measurement models for SB&lt;/font&gt;" style="rounded=0;whiteSpace=wrap;html=1;dashed=1;strokeWidth=3;fillColor=#f9f7ed;strokeColor=#36393d;fontSize=12;fontFamily=Times New Roman;" vertex="1" parent="1">
          <mxGeometry x="-110" y="350" width="180" height="90" as="geometry" />
        </mxCell>
        <mxCell id="2vMHfR8EsplsrGMULfnD-7" value="&lt;font style=&quot;font-size: 22px;&quot; face=&quot;Times New Roman&quot;&gt;measurement models for RGB&lt;/font&gt;" style="rounded=0;whiteSpace=wrap;html=1;dashed=1;strokeWidth=3;fillColor=#cce5ff;strokeColor=#36393d;align=center;" vertex="1" parent="1">
          <mxGeometry x="260" y="349" width="180" height="91" as="geometry" />
        </mxCell>
        <mxCell id="2vMHfR8EsplsrGMULfnD-8" value="0" style="text;html=1;strokeColor=none;fillColor=none;align=center;verticalAlign=middle;whiteSpace=wrap;rounded=0;fontSize=20;fontFamily=Times New Roman;" vertex="1" parent="1">
          <mxGeometry y="270" width="60" height="30" as="geometry" />
        </mxCell>
        <mxCell id="2vMHfR8EsplsrGMULfnD-9" value="1" style="text;html=1;strokeColor=none;fillColor=none;align=center;verticalAlign=middle;whiteSpace=wrap;rounded=0;fontSize=20;fontFamily=Times New Roman;" vertex="1" parent="1">
          <mxGeometry x="270" y="270" width="60" height="30" as="geometry" />
        </mxCell>
        <mxCell id="2vMHfR8EsplsrGMULfnD-10" style="edgeStyle=orthogonalEdgeStyle;rounded=0;orthogonalLoop=1;jettySize=auto;html=1;strokeWidth=2;" edge="1" parent="1">
          <mxGeometry relative="1" as="geometry">
            <mxPoint x="240" y="300" as="sourcePoint" />
            <mxPoint x="350" y="349" as="targetPoint" />
          </mxGeometry>
        </mxCell>
        <mxCell id="2vMHfR8EsplsrGMULfnD-11" value="(a) Diagram of MH framework" style="text;html=1;strokeColor=none;fillColor=none;align=center;verticalAlign=middle;whiteSpace=wrap;rounded=0;fontSize=26;fontFamily=Times New Roman;" vertex="1" parent="1">
          <mxGeometry x="-55" y="460" width="430" height="30" as="geometry" />
        </mxCell>
        <mxCell id="2vMHfR8EsplsrGMULfnD-12" value="" style="rounded=0;whiteSpace=wrap;html=1;" vertex="1" parent="1">
          <mxGeometry x="260" y="36" width="130" height="200" as="geometry" />
        </mxCell>
        <mxCell id="2vMHfR8EsplsrGMULfnD-13" value="Higher-order models" style="text;html=1;strokeColor=none;fillColor=none;align=center;verticalAlign=middle;whiteSpace=wrap;rounded=0;fontFamily=Times New Roman;fontSize=22;" vertex="1" parent="1">
          <mxGeometry x="261.25" y="46" width="127.5" height="40" as="geometry" />
        </mxCell>
        <mxCell id="2vMHfR8EsplsrGMULfnD-14" value="$$\theta_{n}$$" style="ellipse;whiteSpace=wrap;html=1;fontSize=22;strokeWidth=2;" vertex="1" parent="1">
          <mxGeometry x="298.75" y="106" width="52.5" height="50" as="geometry" />
        </mxCell>
        <mxCell id="2vMHfR8EsplsrGMULfnD-15" value="$$\tau_n$$" style="ellipse;whiteSpace=wrap;html=1;fontSize=22;strokeWidth=2;" vertex="1" parent="1">
          <mxGeometry x="298.75" y="166" width="52.5" height="50" as="geometry" />
        </mxCell>
      </root>
    </mxGraphModel>
  </diagram>
</mxfile>
